<?xml version="1.0" encoding="UTF-8"?>
<svg width="700pt" height="700pt" version="1.1" viewBox="0 0 700 700" xmlns="http://www.w3.org/2000/svg">
 <g fill-rule="evenodd">
  <path d="m332.5 77.246v377.75c0 9.6602 7.8398 17.5 17.5 17.5s17.5-7.8398 17.5-17.5v-377.75l75.129 75.125c6.8242 6.8281 17.918 6.8281 24.742 0 6.8281-6.8242 6.8281-17.918 0-24.742l-105-105c-6.8242-6.8438-17.918-6.8438-24.742 0l-105 105c-6.8281 6.8242-6.8281 17.918 0 24.742 6.8242 6.8281 17.918 6.8281 24.742 0z"/>
  <path d="m157.5 455c0 23.203 9.2227 45.465 25.621 61.879 16.414 16.398 38.676 25.621 61.879 25.621h210c23.203 0 45.465-9.2227 61.879-25.621 16.398-16.414 25.621-38.676 25.621-61.879 0-9.6602-7.8398-17.5-17.5-17.5s-17.5 7.8398-17.5 17.5c0 13.93-5.5312 27.281-15.383 37.117-9.8359 9.8516-23.188 15.383-37.117 15.383h-210c-13.93 0-27.281-5.5312-37.117-15.383-9.8516-9.8359-15.383-23.188-15.383-37.117 0-9.6602-7.8398-17.5-17.5-17.5s-17.5 7.8398-17.5 17.5z"/>
 </g>
</svg>
